<?xml version="1.0" encoding="UTF-8" standalone="no"?>
<!-- Created with Inkscape (http://www.inkscape.org/) -->

<svg
   version="1.1"
   id="svg9"
   width="100%"
   height="100%"
   viewBox="0 0 512 512"
   sodipodi:docname="doc.png"
   inkscape:version="1.1.1 (3bf5ae0d25, 2021-09-20)"
   xmlns:inkscape="http://www.inkscape.org/namespaces/inkscape"
   xmlns:sodipodi="http://sodipodi.sourceforge.net/DTD/sodipodi-0.dtd"
   xmlns="http://www.w3.org/2000/svg"
   xmlns:svg="http://www.w3.org/2000/svg">
  <defs
     id="defs13" />
  <sodipodi:namedview
     id="namedview11"
     pagecolor="#ffffff"
     bordercolor="#666666"
     borderopacity="1.0"
     inkscape:pageshadow="2"
     inkscape:pageopacity="0.0"
     inkscape:pagecheckerboard="0"
     showgrid="false"
     inkscape:zoom="0.76464844"
     inkscape:cx="71.92848"
     inkscape:cy="220.36271"
     inkscape:window-width="1920"
     inkscape:window-height="1001"
     inkscape:window-x="-9"
     inkscape:window-y="1341"
     inkscape:window-maximized="1"
     inkscape:current-layer="g15" />
  <g
     inkscape:groupmode="layer"
     inkscape:label="Image"
     id="g15">
    <path
       style="fill:#d15641;fill-opacity:1"
       d="M 107.03466,511.76621 C 90.311475,507.26245 77.373415,493.88777 73.895375,477.50858 72.307235,470.02952 72.292125,44.688967 73.879775,37.107011 77.397405,20.307767 91.695485,6.0161338 108.56937,2.4330525 c 3.73955,-0.794075 37.12555,-1.125262 113.43428,-1.125262 105.66039,0 108.2281,0.04522 112.20078,1.9760784 5.77198,2.805376 124.91597,122.1527611 127.02496,127.2418111 1.36693,3.29843 1.54076,22.78245 1.54076,172.70078 0,121.38959 -0.31693,170.4754 -1.12526,174.28212 -3.58308,16.87389 -17.87472,31.17197 -34.67396,34.6896 -3.75799,0.7869 -50.29254,1.09048 -160,1.04381 -129.82761,-0.0552 -155.54255,-0.29251 -159.93623,-1.47578 z m 317.76183,-30.47187 c 2.54028,-1.29595 4.66421,-3.41988 5.96016,-5.96016 1.99312,-3.90683 2.01346,-5.56357 2.01346,-163.98654 V 151.3078 h -39.7899 c -43.05717,0 -45.91585,-0.28351 -56.39327,-5.59282 -10.61136,-5.37718 -20.10188,-18.0107 -22.69157,-30.2064 -0.72515,-3.415 -1.12526,-19.331655 -1.12526,-44.764156 V 31.2795 l -100.25,0.264145 -100.25,0.264145 -3.12671,2.230306 c -6.93951,4.950001 -6.41474,-14.262992 -6.13008,224.435154 l 0.25679,215.33455 2.21818,3.10969 c 4.87218,6.83034 -7.548685,6.34234 162.07166,6.36754 151.68081,0.0225 153.33126,0.002 157.23654,-1.99069 z M 171.19382,421.28845 c -4.69486,-2.32396 -8.42371,-8.06999 -8.42371,-12.98065 0,-4.60182 3.61056,-10.41284 8.00404,-12.88211 3.72776,-2.09512 4.44798,-2.11789 66.99596,-2.11789 63.15128,0 63.23239,0.003 67.11376,2.18409 4.09379,2.30084 7.88624,8.46394 7.88624,12.81591 0,4.76759 -3.88157,10.76425 -8.37583,12.93989 -4.15776,2.01274 -5.69138,2.06009 -66.68989,2.05932 -60.60325,-7.6e-4 -62.55383,-0.06 -66.51057,-2.01856 z m 0,-60 c -4.69486,-2.32396 -8.42371,-8.06999 -8.42371,-12.98065 0,-4.60182 3.61056,-10.41284 8.00404,-12.88211 3.76329,-2.11509 3.89136,-2.11789 96.99596,-2.11789 h 93.22769 l 3.88607,2.18409 c 4.09379,2.30084 7.88624,8.46394 7.88624,12.81591 0,4.76759 -3.88157,10.76425 -8.37583,12.93989 -4.20295,2.03461 -5.39962,2.0601 -96.68989,2.05932 -90.69133,-7.7e-4 -92.51114,-0.0388 -96.51057,-2.01856 z m 0,-60 c -4.69486,-2.32396 -8.42371,-8.06999 -8.42371,-12.98065 0,-4.60182 3.61056,-10.41284 8.00404,-12.88211 3.76329,-2.11509 3.89136,-2.11789 96.99596,-2.11789 h 93.22769 l 3.88607,2.18409 c 4.09379,2.30084 7.88624,8.46394 7.88624,12.81591 0,4.76759 -3.88157,10.76425 -8.37583,12.93989 -4.20295,2.03461 -5.39962,2.0601 -96.68989,2.05932 -90.69133,-7.7e-4 -92.51114,-0.0388 -96.51057,-2.01856 z m 0,-60 c -4.69486,-2.32396 -8.42371,-8.06999 -8.42371,-12.98065 0,-4.60182 3.61056,-10.41284 8.00404,-12.88211 3.76329,-2.11509 3.89136,-2.11789 96.99596,-2.11789 h 93.22769 l 3.88607,2.18409 c 4.09379,2.30084 7.88624,8.46394 7.88624,12.81591 0,4.76759 -3.88157,10.76425 -8.37583,12.93989 -4.20295,2.03461 -5.39962,2.0601 -96.68989,2.05932 -90.69133,-7.7e-4 -92.51114,-0.0388 -96.51057,-2.01856 z M 377.26459,87.296626 343.27011,53.285462 l -0.29938,7.761164 c -0.16466,4.26864 -0.16466,17.436164 0,29.261164 0.28339,20.35135 0.41789,21.66614 2.51756,24.6097 4.34791,6.09536 5.794,6.34238 37.2763,6.36754 l 28.49449,0.0228 z"
       id="path99" />
  </g>
</svg>
