<?xml version="1.0" encoding="UTF-8"?>
<!-- Created with Inkscape (http://www.inkscape.org/) -->
<svg width="100%" height="100%" version="1.1" viewBox="0 0 409.6 409.6" xmlns="http://www.w3.org/2000/svg">
 <g stroke-width=".8">
  <path d="m-437.54 438.7c-5.7353-1.987-10.184-5.253-13.051-9.5825-4.8434-7.3123-4.7885-6.5746-4.7885-64.277v-52.655h51.2v76.8h281.6v-76.8h51.243l-0.44304 108.4-2.0959 4.4692c-2.664 5.6808-6.9542 9.9709-12.635 12.635l-4.4692 2.0959-171.2 0.17769c-163.1 0.16929-171.4 0.10953-175.36-1.2636zm168.7-102.26c-1.7087-0.84203-18.397-19.301-46.817-51.782-24.289-27.76-45.408-52.033-46.931-53.939-2.4285-3.0387-2.7697-4.026-2.7697-8.0144 0-5.4581 2.0834-8.9273 6.8088-11.338 2.9064-1.4827 4.7819-1.5819 29.922-1.5819h26.821l0.21066-85.542c0.2093-84.984 0.22141-85.556 1.8601-87.751 0.90718-1.215 2.6436-2.9513 3.8587-3.8585 2.1403-1.598 3.1544-1.6494 32.492-1.6494 29.338 0 30.352 0.05148 32.492 1.6494 1.2151 0.90719 2.9515 2.6435 3.8587 3.8585 1.6387 2.1947 1.6508 2.7661 1.8601 87.751l0.21066 85.542h26.692c29.821 0 30.675 0.13103 34.626 5.311 1.849 2.4242 2.2344 3.7253 2.2344 7.5435 0 4.0629-0.33084 5.0281-2.7697 8.0798-1.5233 1.9061-22.649 26.186-46.945 53.955-30.377 34.719-45.038 50.899-46.938 51.8-3.49 1.6561-7.3705 1.6438-10.776-0.0342z"/>
  <path d="m35.8 409.07c0.55-0.22193 1.45-0.22193 2 0 0.55 0.22192 0.1 0.40351-1 0.40351s-1.55-0.18159-1-0.40351zm336 0c0.55-0.22193 1.45-0.22193 2 0 0.55 0.22192 0.1 0.40351-1 0.40351s-1.55-0.18159-1-0.40351zm-348.7-4.8702c-0.9951-1.2688-0.9668-1.2971 0.30204-0.30205 0.77 0.60388 1.4 1.2339 1.4 1.4 0 0.65843-0.65695 0.23465-1.702-1.098zm361.7 1.098c0-0.16612 0.63-0.79612 1.4-1.4 1.2688-0.99509 1.2971-0.9668 0.30205 0.30205-1.0451 1.3326-1.702 1.7564-1.702 1.098zm-364.9-3.498c-0.9951-1.2688-0.9668-1.2971 0.30204-0.30205 1.3326 1.0451 1.7564 1.702 1.098 1.702-0.16612 0-0.79612-0.63-1.4-1.4zm368.1 1.098c0-0.16612 0.63-0.79612 1.4-1.4 1.2688-0.99509 1.2971-0.9668 0.30205 0.30205-1.0451 1.3326-1.702 1.7564-1.702 1.098zm-370.5-4.298c-0.9951-1.2688-0.9668-1.2971 0.30204-0.30205 0.77 0.60388 1.4 1.2339 1.4 1.4 0 0.65843-0.65695 0.23465-1.702-1.098zm372.9 1.098c0-0.16612 0.63-0.79612 1.4-1.4 1.2688-0.99509 1.2971-0.9668 0.30205 0.30205-1.0451 1.3326-1.702 1.7564-1.702 1.098zm-377.47-14.098c0-1.1 0.18158-1.55 0.40351-1s0.22193 1.45 0 2-0.40351 0.1-0.40351-1zm383.2 0c0-1.1 0.18159-1.55 0.40351-1 0.22193 0.55 0.22193 1.45 0 2-0.22192 0.55-0.40351 0.1-0.40351-1zm-193.13-78.965c0.99-0.19068 2.61-0.19068 3.6 0s0.18 0.3467-1.8 0.3467c-1.98 0-2.79-0.15602-1.8-0.3467zm-4.1943-1.0262c-0.28027-0.45349 0.0409-0.5876 0.75278-0.31441 1.3859 0.53183 1.6395 1.1052 0.48877 1.1052-0.41403 0-0.97274-0.35588-1.2416-0.79084zm9.9943 0.47643c0-0.17293 0.55869-0.5288 1.2416-0.79084 0.71193-0.27319 1.033-0.13908 0.75278 0.31441-0.46981 0.76017-1.9943 1.1244-1.9943 0.47643zm-14.443-4.2856-2.7569-3 3 2.7569c2.7923 2.5661 3.3678 3.2431 2.7569 3.2431-0.13369 0-1.4837-1.35-3-3zm20.043 0.2c1.4926-1.54 2.8939-2.8 3.1139-2.8s-0.82124 1.26-2.3139 2.8c-1.4926 1.54-2.8939 2.8-3.1139 2.8s0.82124-1.26 2.3139-2.8zm-25.643-6.6-2.7569-3 3 2.7569c2.7923 2.5661 3.3678 3.2431 2.7569 3.2431-0.13369 0-1.4837-1.35-3-3zm31.243 0.2c1.4926-1.54 2.8939-2.8 3.1139-2.8s-0.82124 1.26-2.3139 2.8c-1.4926 1.54-2.8939 2.8-3.1139 2.8s0.82124-1.26 2.3139-2.8zm-36.843-6.6-2.7569-3 3 2.7569c2.7923 2.5661 3.3678 3.2431 2.7569 3.2431-0.13369 0-1.4837-1.35-3-3zm42.443 0.2c1.4926-1.54 2.8939-2.8 3.1139-2.8s-0.82124 1.26-2.3139 2.8c-1.4926 1.54-2.8939 2.8-3.1139 2.8s0.82124-1.26 2.3139-2.8zm-48.043-6.6-2.7569-3 3 2.7569c1.65 1.5163 3 2.8663 3 3 0 0.6109-0.67697 0.0354-3.2431-2.7569zm53.643 0.2c1.4926-1.54 2.8939-2.8 3.1139-2.8s-0.82124 1.26-2.3139 2.8c-1.4926 1.54-2.8939 2.8-3.1139 2.8s0.82124-1.26 2.3139-2.8zm-59.243-6.6-2.7569-3 3 2.7569c2.7923 2.5661 3.3678 3.2431 2.7569 3.2431-0.13369 0-1.4837-1.35-3-3zm64.843 0.2c1.4926-1.54 2.8939-2.8 3.1139-2.8s-0.82124 1.26-2.3139 2.8c-1.4926 1.54-2.8939 2.8-3.1139 2.8s0.82124-1.26 2.3139-2.8zm-70.443-6.6-2.7569-3 3 2.7569c2.7923 2.5661 3.3678 3.2431 2.7569 3.2431-0.13369 0-1.4837-1.35-3-3zm76.043 0.2c1.4926-1.54 2.8939-2.8 3.1139-2.8s-0.82124 1.26-2.3139 2.8c-1.4926 1.54-2.8939 2.8-3.1139 2.8s0.82124-1.26 2.3139-2.8zm-81.643-6.6-2.7569-3 3 2.7569c2.7923 2.5661 3.3678 3.2431 2.7569 3.2431-0.13369 0-1.4837-1.35-3-3zm87.243 0.2c1.4926-1.54 2.8939-2.8 3.1139-2.8s-0.82124 1.26-2.3139 2.8c-1.4926 1.54-2.8939 2.8-3.1139 2.8s0.82124-1.26 2.3139-2.8zm-92.843-6.6-2.7569-3 3 2.7569c2.7923 2.5661 3.3678 3.2431 2.7569 3.2431-0.13369 0-1.4837-1.35-3-3zm98.443 0.2c1.4926-1.54 2.8939-2.8 3.1139-2.8s-0.82124 1.26-2.3139 2.8c-1.4926 1.54-2.8939 2.8-3.1139 2.8s0.82124-1.26 2.3139-2.8zm-104.04-6.6-2.7569-3 3 2.7569c2.7923 2.5661 3.3678 3.2431 2.7569 3.2431-0.13369 0-1.4837-1.35-3-3zm109.64 0.2c1.4926-1.54 2.8939-2.8 3.1139-2.8s-0.82124 1.26-2.3139 2.8c-1.4926 1.54-2.8939 2.8-3.1139 2.8s0.82124-1.26 2.3139-2.8zm-115.24-6.6-2.7569-3 3 2.7569c2.7923 2.5661 3.3678 3.2431 2.7569 3.2431-0.13369 0-1.4837-1.35-3-3zm120.84 0.2c1.4926-1.54 2.8939-2.8 3.1139-2.8s-0.82124 1.26-2.3139 2.8c-1.4926 1.54-2.8939 2.8-3.1139 2.8s0.82124-1.26 2.3139-2.8zm-126.44-6.6-2.7569-3 3 2.7569c2.7923 2.5661 3.3678 3.2431 2.7569 3.2431-0.13369 0-1.4837-1.35-3-3zm132.04 0.2c1.4926-1.54 2.8939-2.8 3.1139-2.8s-0.82124 1.26-2.3139 2.8c-1.4926 1.54-2.8939 2.8-3.1139 2.8s0.82124-1.26 2.3139-2.8zm-137.64-6.6-2.7569-3 3 2.7569c2.7923 2.5661 3.3678 3.2431 2.7569 3.2431-0.13369 0-1.4837-1.35-3-3zm143.24 0.2c1.4926-1.54 2.8939-2.8 3.1139-2.8s-0.82124 1.26-2.3139 2.8c-1.4926 1.54-2.8939 2.8-3.1139 2.8s0.82124-1.26 2.3139-2.8zm-148.84-6.6-2.7569-3 3 2.7569c2.7923 2.5661 3.3678 3.2431 2.7569 3.2431-0.13369 0-1.4837-1.35-3-3zm154.44 0.2c1.4926-1.54 2.8939-2.8 3.1139-2.8s-0.82124 1.26-2.3139 2.8c-1.4926 1.54-2.8939 2.8-3.1139 2.8s0.82124-1.26 2.3139-2.8zm-160.04-6.6-2.7569-3 3 2.7569c2.7923 2.5661 3.3678 3.2431 2.7569 3.2431-0.13369 0-1.4837-1.35-3-3zm165.64 0.2c1.4926-1.54 2.8939-2.8 3.1139-2.8s-0.82124 1.26-2.3139 2.8c-1.4926 1.54-2.8939 2.8-3.1139 2.8s0.82124-1.26 2.3139-2.8zm-171.24-6.6-2.7569-3 3 2.7569c2.7923 2.5661 3.3678 3.2431 2.7569 3.2431-0.13369 0-1.4837-1.35-3-3zm176.84 0.2c1.4926-1.54 2.8939-2.8 3.1139-2.8s-0.82124 1.26-2.3139 2.8c-1.4926 1.54-2.8939 2.8-3.1139 2.8s0.82124-1.26 2.3139-2.8zm-182.44-6.6-2.7569-3 3 2.7569c2.7923 2.5661 3.3678 3.2431 2.7569 3.2431-0.13369 0-1.4837-1.35-3-3zm188.04 0.2c1.4926-1.54 2.8939-2.8 3.1139-2.8s-0.82124 1.26-2.3139 2.8c-1.4926 1.54-2.8939 2.8-3.1139 2.8s0.82124-1.26 2.3139-2.8zm-192.48-5.4-1.524-1.8 1.8 1.524c1.6916 1.4322 2.1642 2.076 1.524 2.076-0.1518 0-0.9618-0.81-1.8-1.8zm196.88 0.2c0.79639-0.88 1.628-1.6 1.848-1.6s-0.25159 0.72-1.048 1.6-1.628 1.6-1.848 1.6 0.2516-0.72 1.048-1.6zm-199.23-3.2532c-0.29003-0.46927-0.35575-1.0248-0.14604-1.2345 0.20969-0.20971 0.59444 0.17424 0.855 0.85322 0.54094 1.4097 0.0799 1.6576-0.70896 0.38128zm201.68-0.18128c0.30042-0.78898 0.74775-1.233 0.99406-0.98666 0.24632 0.24631 5.2e-4 0.89183-0.54622 1.4345-0.7901 0.78421-0.88198 0.69232-0.44784-0.44784zm-202.67-5.3655c0-1.54 0.16464-2.17 0.36587-1.4 0.20121 0.77 0.20121 2.03 0 2.8-0.20123 0.77-0.36587 0.14-0.36587-1.4zm204 0c0-1.54 0.16464-2.17 0.36586-1.4s0.20122 2.03 0 2.8-0.36586 0.14-0.36586-1.4zm-203.39-4.7528c0-0.41403 0.35588-0.97274 0.79084-1.2416 0.45349-0.28027 0.5876 0.0409 0.31441 0.75278-0.53183 1.3859-1.1052 1.6395-1.1052 0.48877zm202.05-0.61271c-0.43414-1.1402-0.34226-1.232 0.44784-0.44784 0.54674 0.54267 0.79254 1.1882 0.54622 1.4345-0.24631 0.24631-0.69364-0.19769-0.99406-0.98666zm-199.25-3.4345c0.79639-0.88 1.628-1.6 1.848-1.6s-0.2516 0.72-1.048 1.6-1.628 1.6-1.848 1.6 0.25159-0.72 1.048-1.6zm196.72-0.2-1.524-1.8 1.8 1.524c0.99 0.83819 1.8 1.6482 1.8 1.8 0 0.6402-0.64383 0.16756-2.076-1.524zm-189.27-3.5465c0.5775-0.2311 1.2675-0.20268 1.5333 0.0631 0.26583 0.26583-0.20667 0.45491-1.05 0.42017-0.93196-0.0384-1.1215-0.22795-0.48334-0.48333zm181.6 0c0.57749-0.2311 1.2675-0.20268 1.5333 0.0631 0.26584 0.26583-0.20667 0.45491-1.05 0.42017-0.93196-0.0384-1.1215-0.22795-0.48333-0.48333zm-103.05-54.654c0-0.44 0.38125-0.8 0.84722-0.8s0.62472 0.36 0.35278 0.8c-0.27193 0.44-0.65318 0.8-0.84721 0.8s-0.35279-0.36-0.35279-0.8zm-25.474-113.6c0-1.1 0.18158-1.55 0.40351-1 0.22193 0.55 0.22193 1.45 0 2s-0.40351 0.1-0.40351-1zm76 0c0-1.1 0.18158-1.55 0.40351-1 0.22193 0.55 0.22193 1.45 0 2s-0.40351 0.1-0.40351-1zm-75.326-3.1528c0-0.41403 0.35588-0.97273 0.79084-1.2416 0.45349-0.28027 0.5876 0.040846 0.31441 0.75279-0.53183 1.3859-1.1052 1.6395-1.1052 0.48876zm74.051-0.61271c-0.43415-1.1402-0.34226-1.232 0.44784-0.44784 0.54673 0.54267 0.79253 1.1882 0.54622 1.4345-0.24631 0.24631-0.69364-0.19769-0.99406-0.98667zm-71.251-3.4345c0.7964-0.88 1.628-1.6 1.848-1.6s-0.25159 0.72-1.048 1.6c-0.79639 0.88-1.628 1.6-1.848 1.6s0.25159-0.72 1.048-1.6zm68.724-0.2-1.524-1.8 1.8 1.524c0.99 0.83819 1.8 1.6482 1.8 1.8 0 0.6402-0.64384 0.16757-2.076-1.524zm-65.337-2.2993c0.54267-0.54673 1.1882-0.79254 1.4345-0.54623 0.24631 0.24631-0.19769 0.69364-0.98666 0.99406-1.1402 0.43415-1.232 0.34226-0.44784-0.44784zm61.813 0.09927c-0.72104-0.46597-0.81971-0.78039-0.24722-0.78775 0.52403-0.0067377 1.1753 0.34775 1.4472 0.78775 0.61384 0.99322 0.33689 0.99322-1.2 0zm-58.6-1.3298c0.55-0.22193 1.45-0.22193 2 0s0.1 0.40351-1 0.40351-1.55-0.18158-1-0.40351zm54.4 0c0.55-0.22193 1.45-0.22193 2 0s0.1 0.40351-1 0.40351-1.55-0.18158-1-0.40351z"/>
  <path d="m35.8 409.07c0.55-0.22193 1.45-0.22193 2 0 0.55 0.22192 0.1 0.40351-1 0.40351s-1.55-0.18159-1-0.40351zm336 0c0.55-0.22193 1.45-0.22193 2 0 0.55 0.22192 0.1 0.40351-1 0.40351s-1.55-0.18159-1-0.40351zm-348.7-4.8702c-0.9951-1.2688-0.9668-1.2971 0.30204-0.30205 0.77 0.60388 1.4 1.2339 1.4 1.4 0 0.65843-0.65695 0.23465-1.702-1.098zm361.7 1.098c0-0.16612 0.63-0.79612 1.4-1.4 1.2688-0.99509 1.2971-0.9668 0.30205 0.30205-1.0451 1.3326-1.702 1.7564-1.702 1.098zm-364.9-3.498c-0.9951-1.2688-0.9668-1.2971 0.30204-0.30205 1.3326 1.0451 1.7564 1.702 1.098 1.702-0.16612 0-0.79612-0.63-1.4-1.4zm368.1 1.098c0-0.16612 0.63-0.79612 1.4-1.4 1.2688-0.99509 1.2971-0.9668 0.30205 0.30205-1.0451 1.3326-1.702 1.7564-1.702 1.098zm-370.5-4.298c-0.9951-1.2688-0.9668-1.2971 0.30204-0.30205 0.77 0.60388 1.4 1.2339 1.4 1.4 0 0.65843-0.65695 0.23465-1.702-1.098zm372.9 1.098c0-0.16612 0.63-0.79612 1.4-1.4 1.2688-0.99509 1.2971-0.9668 0.30205 0.30205-1.0451 1.3326-1.702 1.7564-1.702 1.098zm-377.47-14.098c0-1.1 0.18158-1.55 0.40351-1s0.22193 1.45 0 2-0.40351 0.1-0.40351-1zm383.2 0c0-1.1 0.18159-1.55 0.40351-1 0.22193 0.55 0.22193 1.45 0 2-0.22192 0.55-0.40351 0.1-0.40351-1zm-193.13-78.965c0.99-0.19068 2.61-0.19068 3.6 0s0.18 0.3467-1.8 0.3467c-1.98 0-2.79-0.15602-1.8-0.3467zm-4.1943-1.0262c-0.28027-0.45349 0.0409-0.5876 0.75278-0.31441 1.3859 0.53183 1.6395 1.1052 0.48877 1.1052-0.41403 0-0.97274-0.35588-1.2416-0.79084zm9.9943 0.47643c0-0.17293 0.55869-0.5288 1.2416-0.79084 0.71193-0.27319 1.033-0.13908 0.75278 0.31441-0.46981 0.76017-1.9943 1.1244-1.9943 0.47643zm-14.443-4.2856-2.7569-3 3 2.7569c2.7923 2.5661 3.3678 3.2431 2.7569 3.2431-0.13369 0-1.4837-1.35-3-3zm20.043 0.2c1.4926-1.54 2.8939-2.8 3.1139-2.8s-0.82124 1.26-2.3139 2.8c-1.4926 1.54-2.8939 2.8-3.1139 2.8s0.82124-1.26 2.3139-2.8zm-25.643-6.6-2.7569-3 3 2.7569c2.7923 2.5661 3.3678 3.2431 2.7569 3.2431-0.13369 0-1.4837-1.35-3-3zm31.243 0.2c1.4926-1.54 2.8939-2.8 3.1139-2.8s-0.82124 1.26-2.3139 2.8c-1.4926 1.54-2.8939 2.8-3.1139 2.8s0.82124-1.26 2.3139-2.8zm-36.843-6.6-2.7569-3 3 2.7569c2.7923 2.5661 3.3678 3.2431 2.7569 3.2431-0.13369 0-1.4837-1.35-3-3zm42.443 0.2c1.4926-1.54 2.8939-2.8 3.1139-2.8s-0.82124 1.26-2.3139 2.8c-1.4926 1.54-2.8939 2.8-3.1139 2.8s0.82124-1.26 2.3139-2.8zm-48.043-6.6-2.7569-3 3 2.7569c1.65 1.5163 3 2.8663 3 3 0 0.6109-0.67697 0.0354-3.2431-2.7569zm53.643 0.2c1.4926-1.54 2.8939-2.8 3.1139-2.8s-0.82124 1.26-2.3139 2.8c-1.4926 1.54-2.8939 2.8-3.1139 2.8s0.82124-1.26 2.3139-2.8zm-59.243-6.6-2.7569-3 3 2.7569c2.7923 2.5661 3.3678 3.2431 2.7569 3.2431-0.13369 0-1.4837-1.35-3-3zm64.843 0.2c1.4926-1.54 2.8939-2.8 3.1139-2.8s-0.82124 1.26-2.3139 2.8c-1.4926 1.54-2.8939 2.8-3.1139 2.8s0.82124-1.26 2.3139-2.8zm-70.443-6.6-2.7569-3 3 2.7569c2.7923 2.5661 3.3678 3.2431 2.7569 3.2431-0.13369 0-1.4837-1.35-3-3zm76.043 0.2c1.4926-1.54 2.8939-2.8 3.1139-2.8s-0.82124 1.26-2.3139 2.8c-1.4926 1.54-2.8939 2.8-3.1139 2.8s0.82124-1.26 2.3139-2.8zm-81.643-6.6-2.7569-3 3 2.7569c2.7923 2.5661 3.3678 3.2431 2.7569 3.2431-0.13369 0-1.4837-1.35-3-3zm87.243 0.2c1.4926-1.54 2.8939-2.8 3.1139-2.8s-0.82124 1.26-2.3139 2.8c-1.4926 1.54-2.8939 2.8-3.1139 2.8s0.82124-1.26 2.3139-2.8zm-92.843-6.6-2.7569-3 3 2.7569c2.7923 2.5661 3.3678 3.2431 2.7569 3.2431-0.13369 0-1.4837-1.35-3-3zm98.443 0.2c1.4926-1.54 2.8939-2.8 3.1139-2.8s-0.82124 1.26-2.3139 2.8c-1.4926 1.54-2.8939 2.8-3.1139 2.8s0.82124-1.26 2.3139-2.8zm-104.04-6.6-2.7569-3 3 2.7569c2.7923 2.5661 3.3678 3.2431 2.7569 3.2431-0.13369 0-1.4837-1.35-3-3zm109.64 0.2c1.4926-1.54 2.8939-2.8 3.1139-2.8s-0.82124 1.26-2.3139 2.8c-1.4926 1.54-2.8939 2.8-3.1139 2.8s0.82124-1.26 2.3139-2.8zm-115.24-6.6-2.7569-3 3 2.7569c2.7923 2.5661 3.3678 3.2431 2.7569 3.2431-0.13369 0-1.4837-1.35-3-3zm120.84 0.2c1.4926-1.54 2.8939-2.8 3.1139-2.8s-0.82124 1.26-2.3139 2.8c-1.4926 1.54-2.8939 2.8-3.1139 2.8s0.82124-1.26 2.3139-2.8zm-126.44-6.6-2.7569-3 3 2.7569c2.7923 2.5661 3.3678 3.2431 2.7569 3.2431-0.13369 0-1.4837-1.35-3-3zm132.04 0.2c1.4926-1.54 2.8939-2.8 3.1139-2.8s-0.82124 1.26-2.3139 2.8c-1.4926 1.54-2.8939 2.8-3.1139 2.8s0.82124-1.26 2.3139-2.8zm-137.64-6.6-2.7569-3 3 2.7569c2.7923 2.5661 3.3678 3.2431 2.7569 3.2431-0.13369 0-1.4837-1.35-3-3zm143.24 0.2c1.4926-1.54 2.8939-2.8 3.1139-2.8s-0.82124 1.26-2.3139 2.8c-1.4926 1.54-2.8939 2.8-3.1139 2.8s0.82124-1.26 2.3139-2.8zm-148.84-6.6-2.7569-3 3 2.7569c2.7923 2.5661 3.3678 3.2431 2.7569 3.2431-0.13369 0-1.4837-1.35-3-3zm154.44 0.2c1.4926-1.54 2.8939-2.8 3.1139-2.8s-0.82124 1.26-2.3139 2.8c-1.4926 1.54-2.8939 2.8-3.1139 2.8s0.82124-1.26 2.3139-2.8zm-160.04-6.6-2.7569-3 3 2.7569c2.7923 2.5661 3.3678 3.2431 2.7569 3.2431-0.13369 0-1.4837-1.35-3-3zm165.64 0.2c1.4926-1.54 2.8939-2.8 3.1139-2.8s-0.82124 1.26-2.3139 2.8c-1.4926 1.54-2.8939 2.8-3.1139 2.8s0.82124-1.26 2.3139-2.8zm-171.24-6.6-2.7569-3 3 2.7569c2.7923 2.5661 3.3678 3.2431 2.7569 3.2431-0.13369 0-1.4837-1.35-3-3zm176.84 0.2c1.4926-1.54 2.8939-2.8 3.1139-2.8s-0.82124 1.26-2.3139 2.8c-1.4926 1.54-2.8939 2.8-3.1139 2.8s0.82124-1.26 2.3139-2.8zm-182.44-6.6-2.7569-3 3 2.7569c2.7923 2.5661 3.3678 3.2431 2.7569 3.2431-0.13369 0-1.4837-1.35-3-3zm188.04 0.2c1.4926-1.54 2.8939-2.8 3.1139-2.8s-0.82124 1.26-2.3139 2.8c-1.4926 1.54-2.8939 2.8-3.1139 2.8s0.82124-1.26 2.3139-2.8zm-192.48-5.4-1.524-1.8 1.8 1.524c1.6916 1.4322 2.1642 2.076 1.524 2.076-0.1518 0-0.9618-0.81-1.8-1.8zm196.88 0.2c0.79639-0.88 1.628-1.6 1.848-1.6s-0.25159 0.72-1.048 1.6-1.628 1.6-1.848 1.6 0.2516-0.72 1.048-1.6zm-199.23-3.2532c-0.29003-0.46927-0.35575-1.0248-0.14604-1.2345 0.20969-0.20971 0.59444 0.17424 0.855 0.85322 0.54094 1.4097 0.0799 1.6576-0.70896 0.38128zm201.68-0.18128c0.30042-0.78898 0.74775-1.233 0.99406-0.98666 0.24632 0.24631 5.2e-4 0.89183-0.54622 1.4345-0.7901 0.78421-0.88198 0.69232-0.44784-0.44784zm-202.67-5.3655c0-1.54 0.16464-2.17 0.36587-1.4 0.20121 0.77 0.20121 2.03 0 2.8-0.20123 0.77-0.36587 0.14-0.36587-1.4zm204 0c0-1.54 0.16464-2.17 0.36586-1.4s0.20122 2.03 0 2.8-0.36586 0.14-0.36586-1.4zm-203.39-4.7528c0-0.41403 0.35588-0.97274 0.79084-1.2416 0.45349-0.28027 0.5876 0.0409 0.31441 0.75278-0.53183 1.3859-1.1052 1.6395-1.1052 0.48877zm202.05-0.61271c-0.43414-1.1402-0.34226-1.232 0.44784-0.44784 0.54674 0.54267 0.79254 1.1882 0.54622 1.4345-0.24631 0.24631-0.69364-0.19769-0.99406-0.98666zm-199.25-3.4345c0.79639-0.88 1.628-1.6 1.848-1.6s-0.2516 0.72-1.048 1.6-1.628 1.6-1.848 1.6 0.25159-0.72 1.048-1.6zm196.72-0.2-1.524-1.8 1.8 1.524c0.99 0.83819 1.8 1.6482 1.8 1.8 0 0.6402-0.64383 0.16756-2.076-1.524zm-189.27-3.5465c0.5775-0.2311 1.2675-0.20268 1.5333 0.0631 0.26583 0.26583-0.20667 0.45491-1.05 0.42017-0.93196-0.0384-1.1215-0.22795-0.48334-0.48333zm181.6 0c0.57749-0.2311 1.2675-0.20268 1.5333 0.0631 0.26584 0.26583-0.20667 0.45491-1.05 0.42017-0.93196-0.0384-1.1215-0.22795-0.48333-0.48333zm-103.05-54.654c0-0.44 0.38125-0.8 0.84722-0.8s0.62472 0.36 0.35278 0.8c-0.27193 0.44-0.65318 0.8-0.84721 0.8s-0.35279-0.36-0.35279-0.8zm-25.474-113.6c0-1.1 0.18158-1.55 0.40351-1 0.22193 0.55 0.22193 1.45 0 2s-0.40351 0.1-0.40351-1zm76 0c0-1.1 0.18158-1.55 0.40351-1 0.22193 0.55 0.22193 1.45 0 2s-0.40351 0.1-0.40351-1zm-75.326-3.1528c0-0.41403 0.35588-0.97273 0.79084-1.2416 0.45349-0.28027 0.5876 0.040846 0.31441 0.75279-0.53183 1.3859-1.1052 1.6395-1.1052 0.48876zm74.051-0.61271c-0.43415-1.1402-0.34226-1.232 0.44784-0.44784 0.54673 0.54267 0.79253 1.1882 0.54622 1.4345-0.24631 0.24631-0.69364-0.19769-0.99406-0.98667zm-71.251-3.4345c0.7964-0.88 1.628-1.6 1.848-1.6s-0.25159 0.72-1.048 1.6c-0.79639 0.88-1.628 1.6-1.848 1.6s0.25159-0.72 1.048-1.6zm68.724-0.2-1.524-1.8 1.8 1.524c0.99 0.83819 1.8 1.6482 1.8 1.8 0 0.6402-0.64384 0.16757-2.076-1.524zm-65.337-2.2993c0.54267-0.54673 1.1882-0.79254 1.4345-0.54623 0.24631 0.24631-0.19769 0.69364-0.98666 0.99406-1.1402 0.43415-1.232 0.34226-0.44784-0.44784zm61.813 0.09927c-0.72104-0.46597-0.81971-0.78039-0.24722-0.78775 0.52403-0.0067377 1.1753 0.34775 1.4472 0.78775 0.61384 0.99322 0.33689 0.99322-1.2 0zm-58.6-1.3298c0.55-0.22193 1.45-0.22193 2 0s0.1 0.40351-1 0.40351-1.55-0.18158-1-0.40351zm54.4 0c0.55-0.22193 1.45-0.22193 2 0s0.1 0.40351-1 0.40351-1.55-0.18158-1-0.40351z"/>
 </g>
 <path d="m198.81 305.61c-5.0064-3.938-73.746-81.398-91.548-103.16-4.9686-6.0744-5.0998-10.679-0.45792-16.08l3.5683-4.1514 56.352-0.9686 0.43684-85.662 0.43684-85.662 3.3702-3.3691c3.287-3.286 4.1166-3.3691 33.62-3.3691 29.503 0 30.333 0.08314 33.62 3.369l3.3702 3.369 0.44692 85.639 0.44692 85.639 56.33 1.0145 3.5694 4.1514c7.3007 8.4911 9.3264 5.4253-43.695 66.129-35.593 40.75-50.336 56.225-53.569 56.225-1.2867 0-4.1203-1.4008-6.2968-3.1129z" fill="#d15641" stroke-width="1.4796"/>
 <path d="m30.263 408.67c-6.6863-2.3846-10.778-5.8384-14.11-11.909-2.1121-3.8487-2.5022-11.708-2.9199-58.817l-0.48206-54.375h50.531v76.939h282.6v-76.939h50.306v52.573c0 43.964-0.37268 53.465-2.2758 58.02-2.9367 7.0285-6.0505 10.39-12.831 13.85-5.2946 2.7023-11.52 2.7994-175.33 2.7368-139.39-0.0533-170.86-0.42606-175.49-2.0787z" fill="#d15641" stroke-width="1.4796"/>
</svg>
