<?xml version="1.0" encoding="UTF-8"?>
<!-- Created with Inkscape (http://www.inkscape.org/) -->
<svg width="100%" height="100%" version="1.1" viewBox="0 0 546.13 546.13" xmlns="http://www.w3.org/2000/svg">
 <path d="m96.48 544.43c-25.753-4.3193-51.293-18.804-67.757-38.429-33.135-39.495-36.163-93.533-7.7027-137.47 4.567-7.0501 142.93-146.71 153.12-154.56 38.645-29.758 90.398-31.91 131.73-5.477 21.155 13.528 28.896 26.787 23.063 39.503-4.0459 8.8198-11.527 13.63-21.077 13.554-6.6018-0.0526-10.239-1.819-19.484-9.4635-13.235-10.944-27.8-16.357-44.006-16.357-12.579 0-18.787 1.4384-30.762 7.1274l-10.133 4.8143-144.32 144.32-4.8356 10.133c-5.9883 12.549-7.56 20.347-6.8289 33.882 0.96736 17.908 7.2062 32.089 19.545 44.428 12.339 12.339 26.521 18.578 44.428 19.545 13.559 0.73244 21.354-0.84463 33.882-6.8544l10.133-4.8611 37.333-37.144c39.245-39.046 42.252-41.483 51.2-41.483 8.1862 0 17.27 6.1067 20.556 13.82 2.2981 5.3933 2.0401 13.6-0.58719 18.677-3.018 5.8321-76.724 78.903-85.036 84.302-25.151 16.339-54.329 22.702-82.465 17.983zm177.12-176.89c-23.865-4.5459-44.628-15.076-60.149-30.504-8.4225-8.3725-10.531-17.02-6.3644-26.103 4.0438-8.8153 11.527-13.63 21.064-13.554 6.507 0.0518 11.124 2.339 20.132 9.9726 12.206 10.344 27.425 15.859 43.691 15.833 15.747-0.0257 28.85-4.2666 40.996-13.27 2.7022-2.0028 39.062-37.873 80.801-79.711l75.887-76.07 4.844-10.133c5.9953-12.542 7.5688-20.34 6.8373-33.882-0.96736-17.908-7.2062-32.089-19.545-44.428-12.339-12.339-26.521-18.578-44.428-19.545-13.554-0.7322-21.35 0.84387-33.882 6.8496l-10.133 4.8563-43.733 43.551c-46.019 45.828-48.464 47.859-57.657 47.909-6.0623 0.0328-14.512-4.4334-18.052-9.5419-3.983-5.7474-5.0416-11.036-3.6366-18.168l1.1558-5.8667 43.362-43.559c51.258-51.491 56.172-55.598 76.091-63.573 52.81-21.146 112.67-0.67561 140.9 48.186 21.994 38.069 20.518 83.006-3.9662 120.81-4.5638 7.047-155.68 159.47-165.93 167.36-13.115 10.101-27.177 16.818-43.879 20.962-11.609 2.8802-33.579 3.6815-44.403 1.6197z" stroke-width="1.0667"/>
 <g fill="#d15641" stroke-width="1.3452">
  <path d="m96.179 543.56c-46.823-9.1784-82.311-43.871-91.539-89.489-1.7335-8.5692-2.1158-15.17-1.5582-26.903 0.88584-18.639 3.8014-29.496 12.664-47.159l6.4122-12.779 75.291-75.748c76.833-77.299 83.414-83.231 100.96-91.016 21.438-9.5097 50.663-11.998 72.638-6.1842 22.219 5.8781 46.556 20.776 54.563 33.4 8.8778 13.999 1.5957 30.494-14.251 32.28-8.3215 0.93795-11.107-0.079-21.59-7.8826-24.535-18.264-47.301-21.751-73.201-11.212l-11.434 4.6528-73.067 72.961c-54.363 54.284-73.95 74.675-76.515 79.656-6.3537 12.338-8.4732 20.571-8.4732 32.915 0 19.841 5.2682 34.2 17.431 47.508 12.373 13.538 26.25 20.138 46.136 21.94 11.776 1.0672 20.152-0.49256 34.322-6.3914 9.8358-4.0947 11.488-5.5115 45.276-38.826 44.916-44.286 44.976-44.335 53.879-44.335 5.902 0 10.834 2.434 16.05 7.9211 5.3459 5.6232 6.4692 16.67 2.3696 23.304-4.4367 7.1787-78.322 79.637-86.614 84.941-23.059 14.751-54.902 21.317-79.751 16.446z"/>
  <path d="m267 365.37c-33.358-9.0713-61.196-30.024-61.196-46.06 0-6.7634 6.058-15.804 12.572-18.762 10.322-4.6866 15.021-3.5003 29.599 7.4714 13.733 10.336 24.081 14.337 39.211 15.162 14.871 0.81021 24.688-1.0979 36.784-7.1493 8.2666-4.1356 16.83-12.173 86.514-81.199 82.122-81.347 81.984-81.191 88.625-100.49 3.2329-9.3966 3.5243-27.434 0.62304-38.573-5.691-21.849-22.911-40.293-43.646-46.746-18.643-5.8024-35.373-4.733-53.225 3.4022-8.8779 4.0458-12.727 7.4592-51.029 45.252-45.164 44.564-52.571 50.965-58.976 50.965-7.1251 0-15.425-5.0042-19.318-11.648-3.0132-5.1417-3.4026-7.01-2.699-12.951l0.82219-6.9422 43.409-43.506c23.875-23.928 48.016-47.006 53.647-51.284 18.602-14.133 39.259-20.724 65.091-20.769 31.25-0.054246 56.341 10.354 78.828 32.698 13.732 13.645 22.257 27.387 28.411 45.799 4.0275 12.049 4.2742 13.932 4.3174 32.956 0.0548 24.097-1.5368 31.15-11.687 51.787l-6.9458 14.123-81.436 81.878c-46.729 46.982-84.806 84.175-89.343 87.267-19.351 13.189-36.034 18.43-61.369 19.277-15.009 0.50214-19.795 0.1629-27.585-1.9555z"/>
  <path d="m260.62 362.51c-14.546-4.9261-23.441-9.3399-34.213-16.976-20.815-14.756-24.645-28.758-11.33-41.417 3.2177-3.059 5.6868-4.0482 11.218-4.494 6.8893-0.55528 7.4952-0.30492 21.216 8.7662 19.026 12.579 23.088 14.037 41.252 14.81 17.487 0.74427 28.812-1.8891 40.003-9.302 7.931-5.2532 122.29-116.93 145.67-142.26 12.955-14.032 17.741-20.288 21.609-28.248 4.7085-9.6894 4.9949-11.049 5.4754-25.998 0.61136-19.022-2.0609-29.73-10.618-42.544-12.887-19.299-33.304-29.79-57.973-29.79-12.872 0-28.736 4.6917-37.904 11.21-3.5144 2.4986-23.903 21.554-45.308 42.345-45.87 44.554-50.752 48.679-57.6 48.672-5.9816-6e-3 -12.16-3.5799-16.874-9.7598-2.8049-3.6774-3.5187-6.1077-3.5187-11.98v-7.3667l44.726-44.381c24.6-24.409 48.028-46.969 52.062-50.133 9.7042-7.6089 23.558-14.467 36.199-17.921 15.112-4.1287 43.842-4.1097 58.427 0.038759 36.029 10.248 65.035 38.689 77.785 76.267 2.8854 8.5045 3.187 11.63 3.1155 32.284-0.0903 26.071-0.98344 29.816-12.631 52.958l-6.5197 12.954-83.201 82.793c-86.348 85.925-89.362 88.609-107.99 96.18-11.238 4.5664-28.809 7.3355-46.34 7.303-12.99-0.0241-16.505-0.55211-26.732-4.0155z"/>
  <path d="m260.35 362.42c-20.977-7.1028-39.973-18.884-48.523-30.092-4.5374-5.9488-5.8146-14.836-2.9272-20.367 4.0252-7.7106 9.6834-11.716 17.463-12.361 6.9032-0.57248 7.577-0.312 18.526 7.1613 6.2491 4.2655 15.274 9.5931 20.055 11.839 7.6712 3.6036 10.465 4.1516 23.765 4.6606 18.905 0.72363 29.775-2.1478 41.888-11.065 14.573-10.728 144.84-139.65 156.76-155.15 10.727-13.94 13.355-21.308 14.078-39.467 0.70675-17.741-1.1173-26.487-8.0743-38.715-8.8972-15.637-27.136-28.799-45.074-32.525-18.65-3.8745-43.069 1.4977-56.29 12.384-3.6369 2.9946-23.28 21.61-43.652 41.367-43.975 42.649-49.403 47.205-56.234 47.198-5.9816-6e-3 -12.16-3.5799-16.874-9.7598-2.8049-3.6774-3.5187-6.1077-3.5187-11.98v-7.3667l44.726-44.381c24.6-24.409 48.028-46.969 52.062-50.133 9.7042-7.6089 23.558-14.467 36.199-17.921 15.107-4.1273 43.843-4.1096 58.416 0.03592 36.171 10.289 64.998 38.551 77.795 76.27 2.8592 8.4273 3.1919 11.747 3.1685 31.611-0.0307 25.961-1.0909 30.569-12.047 52.356l-7.1554 14.229-83.201 82.793c-86.349 85.925-89.363 88.609-107.99 96.18-11.238 4.5664-28.809 7.3355-46.34 7.303-13.064-0.0242-16.481-0.5437-26.999-4.1052z"/>
  <path d="m260.35 362.42c-20.977-7.1028-39.973-18.884-48.523-30.092-10.566-13.852-0.94573-33.033 16.567-33.033 4.2938 0 7.8122 1.606 17.603 8.0347 21.033 13.811 28 16.205 46.975 16.145 23.317-0.074 30.369-3.7919 59.704-31.477 40.429-38.155 128.01-126.15 135.33-135.96 11.029-14.796 12.939-20.919 13.008-41.7 0.0685-20.6-2.2142-28.477-12.071-41.656-16.731-22.369-43.988-32.11-71.62-25.595-17.251 4.0673-21.338 7.171-65.297 49.584-22.581 21.787-44.191 42.09-48.021 45.118-10.449 8.2591-18.812 7.2999-28.045-3.2167-3.7096-4.225-4.2352-5.7924-4.2352-12.631v-7.8075l46.744-46.348c25.709-25.491 49.468-48.208 52.797-50.481 9.6015-6.5564 21.878-12.29 33.226-15.518 15.155-4.3109 43.579-4.2851 58.841 0.053227 30.608 8.7005 56.307 30.517 70.765 60.072 9.4055 19.227 11.128 27.9 10.288 51.788-0.79836 22.694-2.1909 28.138-12.38 48.399l-7.1162 14.151-83.201 82.818c-87.352 86.949-90.406 89.655-109.31 96.839-10.532 4.002-28.543 6.6501-45.022 6.6196-13.064-0.0242-16.481-0.5437-26.999-4.1052z"/>
 </g>
</svg>
