<?xml version="1.0" encoding="UTF-8"?>
<!-- Created with Inkscape (http://www.inkscape.org/) -->
<svg width="100%" height="100%" version="1.1" viewBox="0 0 49.951 49.951" xmlns="http://www.w3.org/2000/svg">
 <path d="m20.918 49.098c-15.831-2.4483-24.971-20.203-17.849-34.67 7.316-14.861 25.964-18.47 38.511-7.4531 1.5813 1.3884 3.967 4.7423 5.3015 7.4531 5.9832 12.154 0.99655 26.49-11.242 32.319-5.3801 2.5626-9.3032 3.189-14.723 2.3509zm5.6187-16.285v-6.2111l6.0488-0.22795c4.7551-0.1792 6.0488-0.47835 6.0488-1.3987 0-0.91972-1.2897-1.2195-6.0152-1.3981l-6.0152-0.22735-0.22866-5.6263c-0.17798-4.3792-0.48816-5.6263-1.3994-5.6263-0.91123 0-1.2214 1.2471-1.3994 5.6263l-0.22866 5.6263-6.0152 0.22735c-4.7255 0.1786-6.0152 0.47836-6.0152 1.3981 0 0.92033 1.2937 1.2195 6.0488 1.3987l6.0488 0.22795v6.2111c0 5.6907 0.13077 6.2111 1.561 6.2111 1.4302 0 1.561-0.52032 1.561-6.2111z" fill="#43b05c" stroke-width=".78049"/>
</svg>
