<?xml version="1.0" encoding="UTF-8"?>
<!-- Created with Inkscape (http://www.inkscape.org/) -->
<svg width="546.13" height="546.13" version="1.1" viewBox="0 0 546.13 546.13" xmlns="http://www.w3.org/2000/svg">
 <path d="m176.37 544.47c-3.1366-3.1366-3.3166-6.3954-0.59163-10.715 1.1102-1.76 16.418-22.16 34.017-45.333 31.566-41.564 31.978-42.172 30.511-45.014-0.8182-1.5842-1.4876-5.5988-1.4876-8.9214 0-11.758 7.5155-19.486 19.919-20.482l6.7481-0.54167v-27.441h-97.101c-106.21 0-101.24 0.28463-108.06-6.1899-1.6671-1.5822-4.0671-4.7967-5.3333-7.1434-2.3009-4.264-2.3025-4.3229-2.5973-96.087l-0.29498-91.82 2.2391-2.8465c2.8272-3.5942 8.6359-3.9393 11.428-0.67903 1.7232 2.0122 1.8944 8.7067 2.3896 93.428l0.53333 91.26 2.5182 2.0388c2.4593 1.9911 7.2022 2.0388 202.75 2.0388h200.23l2.2541-2.4c2.1626-2.3025 2.2676-3.5842 2.5859-31.562l0.33183-29.162 2.5182-2.0376c3.2654-2.6422 8.1202-2.5993 10.815 0.0957 2.0331 2.0331 2.1333 3.5556 2.1333 32.412v30.278l-2.9805 5.7053c-2.1697 4.1533-4.3956 6.5803-8.1825 8.9218l-5.202 3.2165-196.44 1.0667-0.29854 13.6-0.29853 13.6 5.6319 0.0235c9.6446 0.0401 17.055 4.7448 20.514 13.024 2.0779 4.9731 2.088 9.0576 0.0374 15.097l-1.6134 4.7522 32.206 42.485c17.713 23.367 33.15 44.084 34.303 46.038 1.9765 3.3484 1.9979 3.7616 0.37158 7.172-1.9528 4.095-5.8775 5.6503-9.7761 3.874-1.3742-0.62612-17.779-21.323-36.455-45.992l-33.956-44.854-11.2-0.02v87.312l-2.8105 2.2108c-1.5458 1.2159-3.4432 2.2108-4.2165 2.2108-3.1545 0-6.7998-2.6178-7.8532-5.6395-0.70767-2.03-1.1198-18.484-1.1198-44.709v-41.497l-11.019 0.64483-33.526 44.267c-18.439 24.347-34.56 44.85-35.824 45.562-3.4947 1.9704-5.8672 1.6321-8.7463-1.247zm115.57-106.4c1.7269-1.7269 1.6195-5.6437-0.19602-7.1504-1.0087-0.83713-6.7939-1.1318-18.271-0.9306-15.564 0.2728-16.902 0.45439-18.243 2.4772-1.2341 1.8606-1.2048 2.5297 0.19857 4.5333 1.5785 2.2537 2.3383 2.3505 18.439 2.3505 11.639 0 17.186-0.39285 18.073-1.28zm192.1-152.71c-5.2977-2.6412-5.1884-0.6268-5.2051-95.877l-0.0157-89.333h-410.67v28.599c0 27.307-0.0983 28.704-2.1749 30.933-3.1531 3.3845-8.7584 3.1548-11.614-0.47605-2.109-2.6812-2.2108-4.0988-2.2108-30.812v-28.002l-4.5998-0.68979c-5.5213-0.82797-12.1-5.8803-14.199-10.905-1.0215-2.4449-1.4675-8.3161-1.4675-19.32 0-14.291 0.23036-16.259 2.4-20.505 2.9311-5.7362 6.5665-8.5155 12.685-9.6975 2.5568-0.49395 52.769-0.91899 111.58-0.94454l106.93-0.04645v-14.241c0-15.794 0.96112-20.083 4.9033-21.879 3.7227-1.6962 5.0681-1.5343 8.2862 0.99706l2.8105 2.2108v32.912l107.47 0.02545c60.658 0.01437 109.29 0.44812 111.65 0.99586 5.0839 1.1791 8.8914 3.879 12.083 8.5678 2.2487 3.3041 2.4 4.6324 2.4 21.074 0 14.124-0.34468 18.274-1.7667 21.271-2.1934 4.6223-8.426 8.8624-14.157 9.6311l-4.3429 0.5825v90.063c0 56.707-0.38671 90.786-1.0442 92.014-1.5461 2.8889-6.6577 4.3867-9.735 2.8525zm14.832-202.49c1.7652-1.7652 1.7652-25.541 0-27.307-0.9874-0.9874-52.295-1.28-224.45-1.28-122.74 0-223.93 0.29136-224.85 0.64746-1.4162 0.54346-1.6872 2.8278-1.6872 14.222 0 7.4661 0.32 13.895 0.71111 14.286 0.39111 0.39111 101.58 0.71111 224.85 0.71111 172.91 0 224.43-0.29257 225.42-1.28z" stroke-width="1.0667"/>
 <path d="m177.05 544.22c-4.8551-4.8551-4.9193-4.7453 29.61-50.64 17.574-23.359 32.653-43.823 33.507-45.475 1.2167-2.3528 1.3265-3.5034 0.50607-5.3039-1.7075-3.7476-1.2834-13.282 0.76884-17.284 3.5678-6.9572 8.7503-10.012 18.948-11.168l5.9668-0.67653v-28.386l-98.572-0.27246c-110.45-0.30528-102.53 0.23326-108.55-7.38-6.041-7.6274-5.7627-3.1938-6.4043-102.05l-0.58649-90.374 2.4742-2.6254c2.8877-3.0641 8.2026-3.6033 10.325-1.0474 1.8447 2.2217 2.5358 32.466 2.6494 115.94 0.0928 68.202 0.0974 68.355 2.1011 70.17 1.9013 1.7219 4.632 1.8505 51.315 2.4172 27.119 0.32917 117.65 0.65138 201.18 0.71602l151.87 0.11752 4.629-4.9262 0.50895-29.047c0.49578-28.295 0.56315-29.101 2.6042-31.142 2.2649-2.2649 8.0271-2.8887 9.8495-1.0663 2.1851 2.1851 2.7451 9.3557 2.7671 35.431 0.021 24.93-0.12064 27.289-1.841 30.661-2.7212 5.3339-6.2237 9.1634-10.803 11.811l-4.0406 2.3363-97.824 0.65602c-53.803 0.36081-97.887 0.74212-97.963 0.84734-0.0764 0.10523-0.41478 6.2209-0.75209 13.59l-0.6133 13.399 7.6286 1.0214c9.2788 1.2423 13.906 4.0837 17.548 10.776 2.8741 5.2807 3.188 9.9474 1.1292 16.788-0.76321 2.536-1.1103 5.0745-0.77129 5.6412 0.33901 0.56671 12.484 16.711 26.988 35.877 32.452 42.881 40.09 53.355 40.09 54.975 0 4.4411-4.8085 8.7585-8.463 7.5986-2.7101-0.86016-15.742-17.243-56.796-71.405l-15.016-19.81h-12.331v87.702l-2.7728 1.9744c-3.5786 2.5481-5.1159 2.4879-8.3917-0.32906l-2.6786-2.3035-0.26669-43.522-0.2667-43.522-5.4615 0.0146c-3.0038 8e-3 -5.9192 0.33025-6.4786 0.71602-0.55941 0.38578-8.4834 10.583-17.609 22.659-21.265 28.142-47.716 62.255-50.894 65.635-3.0524 3.2466-5.7573 3.3332-8.8085 0.28207zm115.13-106.54c1.9571-1.9571 1.8713-4.903-0.2073-7.1114-0.98342-1.0449-30.502-1.1359-34.602-0.10676-3.2357 0.81211-4.2878 4.7333-1.96 7.3054 1.5576 1.7211 3.0191 1.8709 18.252 1.8709 15.424 0 16.693-0.13425 18.517-1.9582z" fill="#d15641" stroke-width=".9547"/>
 <path d="m484.3 284.48c-1.8368-0.77232-3.1356-2.187-3.6105-3.9327-0.4079-1.4995-0.92403-42.788-1.147-91.752l-0.40532-89.025h-411.25l-0.29099 28.725-0.29098 28.725-2.6787 2.3028c-3.1053 2.6696-5.1386 2.8824-8.0508 0.84263-3.4904-2.4448-4.0574-7.2535-4.063-34.458l-5e-3 -25.893-3.5926-0.57449c-4.9159-0.78609-12.172-5.5775-14.237-9.4008-1.3515-2.5027-1.7773-6.0002-2.0539-16.872-0.19195-7.5431-0.0754-15.539 0.25903-17.769 0.8836-5.8923 4.9673-11.617 10.069-14.115l4.3044-2.1078 218.95-0.71071 0.31748-16.029c0.2752-13.894 0.54943-16.285 2.0585-17.951 2.7315-3.015 6.0491-3.4094 9.2866-1.104l2.8155 2.0048v33.088l219.1 0.68697 4.5978 2.2571c2.8903 1.4189 5.5494 3.6934 7.1602 6.1246 2.4381 3.6798 2.5778 4.5429 2.8783 17.785 0.42592 18.763-0.20203 23.202-3.8743 27.384-3.4966 3.9824-6.8334 5.8351-11.996 6.6606l-3.821 0.611-0.33673 90.49c-0.31929 85.804-0.42643 90.589-2.0693 92.404-2.3442 2.5901-4.6052 3.0418-8.0258 1.6035zm15.029-201.89c1.1788-1.865 1.1788-24.867 0-26.731-0.79948-1.2649-26.643-1.4644-221.38-1.7088-121.26-0.15223-222.56 0.07204-225.1 0.49839l-4.6302 0.77517-0.26381 13.995-0.26382 13.995 2.6506 0.41906c1.4578 0.23048 102.87 0.36752 225.37 0.30451 196.85-0.10124 222.82-0.28088 223.62-1.5466z" fill="#d15641" stroke-width=".9547"/>
</svg>
