<?xml version="1.0" encoding="UTF-8"?>
<!-- Created with Inkscape (http://www.inkscape.org/) -->
<svg width="501.55" height="501.55" version="1.1" viewBox="0 0 501.55 501.55" xmlns="http://www.w3.org/2000/svg">
 <path d="m44.529 401.25c-19.453-5.119-35.597-21.912-39.706-41.303-2.0816-9.823-2.0816-198.35 0-208.18 3.1272-14.757 14.893-30.212 27.951-36.715 13.087-6.5171 5.4131-6.1992 142.63-5.9087l124.31 0.26322 6.7371 2.697c13.491 5.4005 24.085 15.172 29.91 27.588 5.6536 12.05 5.4752 8.2501 5.4752 116.65v99.918l-2.3846 7.7193c-5.6145 18.175-20.583 32.567-38.809 37.314-8.4065 2.1896-247.78 2.1434-256.11-0.0495zm421.57-28.859c-5.6261-1.1135-9.099-2.965-55.45-29.562l-40.898-23.468 0.013-63.833 0.013-63.833 42.844-24.68c23.564-13.574 44.828-25.576 47.252-26.672 3.101-1.4018 6.5033-1.9991 11.473-2.0142 11.929-0.0363 21.191 4.7065 27.719 14.196 6.0486 8.7914 5.9453 6.8534 5.6485 105.9l-0.26972 90.002-2.1355 4.5744c-4.3717 9.3644-12.736 16.389-22.56 18.948-6.1097 1.5914-7.5856 1.6388-13.65 0.43855z" stroke-width=".97959"/>
 <path d="m50.785 400.46c-6.0519-0.66182-13.289-2.4141-16.082-3.894-9.0836-4.8126-18.622-14.268-23.741-23.532l-5.012-9.0716-1.1332-48.246c-1.4533-61.875-0.1237-157.68 2.3225-167.35 1.0266-4.057 5.115-11.789 9.0855-17.183 5.7589-7.8229 9.5506-10.953 18.748-15.477l11.529-5.6708 127.02 0.22883c126.6 0.22807 127.04 0.24102 134.84 3.9047 11.232 5.2797 20.263 13.618 26.034 24.037l5.0246 9.0716 0.47226 106.39 0.47225 106.39-4.0868 8.9266c-5.609 12.252-14.82 21.92-26.211 27.514l-9.5824 4.7057-119.35 0.22921c-65.64 0.12612-124.3-0.31229-130.35-0.97409z" fill="#d15641" stroke-width="1.6928"/>
 <path d="m456.22 367.08c-4.6553-2.3854-25.804-14.219-46.997-26.297l-38.532-21.96 0.44343-63.499 0.44344-63.499 45.51-26.085c41.366-23.709 46.25-26.085 53.637-26.085 10.034 0 16.226 2.2459 22.465 8.1487 10.796 10.214 10.36 6.1051 10.986 103.72 0.60849 94.999 0.3441 98.77-7.5854 108.19-10.194 12.114-25.606 14.923-40.371 7.3578z" fill="#d15641" stroke-width="1.6928"/>
</svg>
